<?xml version='1.0' encoding='utf-8'?>
<svg xmlns="http://www.w3.org/2000/svg" width="399.48495mm" height="484.38535mm" viewBox="0 0 399.48495 484.38535" version="1.1" id="svg5" xml:space="preserve"><defs id="defs2" /><g id="layer1"><path style="fill:#000000;stroke-width:1" d="m 0.004110000000082437 484.1124 c 0.0107,-0.1557 2.2553,-1.9087 4.98512,-3.8964 2.72876,-1.9877 14.4414,-10.6047 26.02822,-19.1492 21.51867,-15.8704 34.79457,-25.6466 48.15044,-35.4601 4.13845,-3.0412 9.80923,-7.2254 12.60196,-9.2995 2.7938,-2.074 11.40554,-8.3825 19.13862,-14.018 l 14.05859,-10.2464 -5.4074,-0.2357 c -2.97401,-0.129 -6.1261,-0.256 -7.00583,-0.2815 l -1.59844,-0.053 v -5.2667 -5.2656 h -7.47715 c -6.08026,0 -7.56247,-0.1066 -7.93142,-0.547 -0.45212,-0.5438 -0.82854,-5.047 -1.35318,-16.1934 l -0.26658,-5.6431 -2.83646,-2.9153 c -1.56005,-1.6027 -2.93456,-2.9143 -3.05399,-2.9143 -0.11836,0 -0.21646,2.2713 -0.21646,5.047 0,2.7757 -0.096,5.1419 -0.2122,5.2581 -0.11623,0.1173 -0.96291,0.085 -1.87996,-0.075 l -1.66988,-0.2826 -0.18768,-2.4366 -0.18767,-2.4366 -1.69334,-0.4926 c -2.53469,-0.7368 -2.81087,-0.9672 -2.93776,-2.4515 -0.10663,-1.2338 -0.42014,-1.5824 -3.32378,-3.6789 -1.76478,-1.2743 -3.91345,-2.524 -4.77505,-2.7778 l -1.56538,-0.4617 -0.10664,-3.5776 -0.1077,-3.5775 1.17831,-0.2357 c 1.47368,-0.2943 8.12548,-6.1688 7.93034,-7.0037 -0.0746,-0.3135 -0.21646,-1.3756 -0.31777,-2.3577 -0.14395,-1.3926 -0.33269,-1.7871 -0.85414,-1.7871 -0.7187,0 -1.13884,-1.3361 -1.13884,-3.6202 0,-0.8787 0.17382,-1.2701 0.56409,-1.2701 0.3103,0 0.56409,-0.1908 0.56409,-0.4233 0,-0.2335 -2.49735,-4.1694 -5.54922,-8.7461 l -5.54814,-8.3228 -0.18768,-5.5982 -0.18874,-5.5983 -3.10304,-1.6774 -3.10411,-1.6773 v -19.9042 -19.9032 h 1.5046 1.50567 l 0.0427,-40.0623 c 0.0213,-22.0348 0.0853,-40.2329 0.14076,-40.4397 0.0533,-0.2069 0.11516,-8.84 0.14076,-19.1855 l 0.0427,-18.8091 h 1.5046 c 0.82855,0 1.50567,-0.1686 1.50567,-0.3754 0,-0.2346 -2.20305,-0.3764 -5.85632,-0.3764 -5.68571,0 -5.84993,-0.022 -5.61747,-0.7529 0.22394,-0.707 0.064,-0.7518 -2.59012,-0.7518 -1.55579,0 -3.2726,-0.2026 -3.81536,-0.45 -2.00791,-0.9138 -2.05909,-1.3286 -2.05909,-16.6231 0,-8.0508 0.15462,-14.5064 0.35935,-15.046 0.55769,-1.4673 1.88848,-2.0911 5.02778,-2.3555 2.40992,-0.2037 2.8887,-0.354 2.8887,-0.9043 0,-0.8968 2.65198,-1.5014 6.84162,-1.5611 2.77568,-0.043 3.54984,0.096 5.14615,0.884 l 1.87995,0.9309 0.21646,-2.6573 c 0.11836,-1.462 0.37428,-5.931 0.56943,-9.9329 0.25272,-5.207 0.50651,-7.5071 0.89358,-8.0882 1.56325,-2.3481 9.27501,-11.1613 13.22578,-15.1174 14.51497,-14.531 31.20848,-24.271 52.20039,-30.4547 2.90683,-0.8562 3.29178,-1.0716 3.29178,-1.8372 0,-0.9736 -1.18897,-0.7518 14.10657,-2.6285 13.551,-1.6635 26.28093,-2.8749 30.19546,-2.8749 2.62212,0 3.47199,-0.4681 3.47199,-1.9119 0,-0.8861 -0.25912,-1.2721 -1.19003,-1.7733 -6.8171,-3.6693 -8.01992,-11.9643 -2.44618,-16.8706 4.14591,-3.65 9.77831,-3.4933 14.07778,0.3914 0.82961,0.7496 1.72426,1.8821 1.98659,2.5165 l 0.47771,1.1538 1.02369,-1.6272 c 2.11347,-3.36 5.05763,-4.9883 9.01801,-4.9883 9.02654,0 13.71095,10.8777 7.40144,17.1872 -0.74003,0.74 -1.93113,1.5579 -2.64772,1.817 -1.14524,0.4137 -1.32119,0.6548 -1.46621,2.0058 -0.096,0.8445 -0.064,1.6369 0.064,1.7615 0.12476,0.1248 4.28881,0.513 9.25474,0.8627 9.7943,0.69 23.13631,2.0399 31.96451,3.2353 3.06145,0.4149 5.71344,0.7539 5.89258,0.7539 0.17914,0 0.32523,0.4159 0.32523,0.9246 0,0.8242 0.29644,1.0108 2.72769,1.7156 17.75344,5.1483 30.90351,11.7767 43.73047,22.0402 5.39567,4.3187 15.67515,14.5907 20.19215,20.1783 l 3.57117,4.4189 0.49264,9.9702 c 0.27192,5.4831 0.56943,9.9692 0.66327,9.9692 0.096,0 0.61847,-0.3189 1.16764,-0.7091 2.13587,-1.5185 5.74222,-1.9002 9.83802,-1.0407 1.51419,0.3166 2.16573,0.6525 2.42698,1.2497 0.30177,0.6867 0.77736,0.8541 3.01027,1.0567 3.39308,0.3082 4.62257,0.7988 5.30183,2.1114 0.79975,1.5473 0.80934,28.8369 0.0107,30.3821 -0.75177,1.4534 -2.07296,1.9353 -5.31249,1.9353 -2.55281,0 -2.8034,0.064 -2.8034,0.7518 0,0.7187 -0.26552,0.755 -5.92563,0.7966 -3.25766,0.021 -5.58548,0.1151 -5.17174,0.2026 0.41374,0.085 1.13245,0.2399 1.59845,0.3391 l 0.84666,0.1812 v 59.2415 59.2403 h 1.5046 1.5046 v 19.9117 19.9107 l -3.0092,1.6037 -3.0092,1.6038 v 5.208 5.209 l -4.81557,7.4153 c -7.11887,10.962 -6.92586,10.6122 -5.85312,10.6122 0.5225,0 0.58008,0.2996 0.37854,1.9749 -0.13009,1.0866 -0.23779,2.3566 -0.23992,2.8215 0,0.5993 -0.22713,0.8467 -0.76777,0.8467 -0.85733,0 -0.96503,0.2217 -1.29133,2.6701 l -0.23033,1.7285 3.48586,3.0668 c 2.28835,2.0122 3.90812,3.1446 4.7164,3.2961 l 1.23162,0.2314 v 3.5412 3.5414 l -1.17937,0.2356 c -0.6494,0.1301 -2.92389,1.3852 -5.05444,2.7896 -3.65433,2.4088 -3.88252,2.6338 -3.99342,3.9486 -0.12903,1.527 -0.47986,1.8277 -2.80233,2.4057 l -1.55472,0.3881 -0.32524,2.5358 -0.3263,2.5368 -1.99511,0.114 -1.99512,0.1141 0.11409,-5.3348 0.11411,-5.336 -2.73835,2.9421 c -1.50567,1.6187 -2.81407,3.2906 -2.9079,3.7161 -0.2378,1.077 -1.31267,16.234 -1.31267,18.502 0,1.0696 -0.24738,2.2084 -0.58542,2.6914 -0.57262,0.8158 -0.76243,0.8361 -8.08816,0.8361 h -7.50275 v 5.0896 c 0,3.729 -0.12476,5.1366 -0.47025,5.2645 -0.25805,0.096 -3.34083,0.3018 -6.85015,0.4586 l -6.37989,0.2847 7.69681,5.675 c 4.23336,3.1222 11.92912,8.7824 17.10085,12.5795 19.53956,14.3444 33.36994,24.5055 41.19259,30.2648 4.44769,3.2748 13.2503,9.7378 19.56088,14.3614 6.31059,4.6237 14.68986,10.7797 18.62144,13.6791 3.93052,2.8993 10.32214,7.5965 14.20254,10.4373 l 7.05489,5.1663 -16.95796,0.096 c -9.32724,0.053 -24.48203,0.053 -33.67705,0 l -16.71696,-0.096 5.46071,-6.3809 c 3.00281,-3.5104 5.46071,-6.5719 5.46071,-6.8033 0,-0.2313 -3.19794,-3.4944 -7.10713,-7.2489 l -7.10714,-6.8278 -12.73099,3.0029 c -7.00157,1.6528 -12.77898,3.0038 -12.83763,3.0038 -0.0853,0 11.77342,-14.2932 14.06711,-16.958 0.44786,-0.5193 -0.0427,-1.1313 -3.90812,-4.9157 -2.43124,-2.3769 -5.56202,-5.3946 -6.95785,-6.7052 l -2.53681,-2.3833 -3.29392,0.8606 c -1.8117,0.4735 -6.08345,1.6005 -9.49359,2.5048 -3.41015,0.9053 -6.31699,1.6017 -6.45987,1.5484 -0.14183,-0.053 2.25743,-3.0935 5.33275,-6.7585 l 5.5908,-6.6614 -3.36535,-3.1691 -3.36643,-3.1682 -7.52194,2.3577 c -4.13632,1.2967 -7.52087,2.2905 -7.52087,2.2074 0,-0.085 2.05056,-2.5315 4.55859,-5.4416 2.50696,-2.9111 4.41143,-5.4234 4.23122,-5.5844 -0.17914,-0.161 -1.54619,-1.3979 -3.03799,-2.749 l -2.7117,-2.4579 -5.05444,1.6134 c -8.35581,2.6668 -8.0711,2.8439 -3.69059,-2.2991 2.89404,-3.3973 3.68953,-4.5597 3.37816,-4.9339 -0.22393,-0.2698 -2.06123,-2.0154 -4.08301,-3.8793 l -3.67566,-3.3899 -10.28695,0.5673 c -10.4501,0.5758 -21.92495,1.2476 -38.8765,2.2777 -5.17281,0.3145 -11.18161,0.6707 -13.35374,0.7922 -3.6714,0.2048 -7.8589,0 -38.18232,-1.9375 -4.75906,-0.3039 -13.02211,-0.8285 -18.36232,-1.1687 l -9.71007,-0.6163 -3.87506,3.7183 c -2.13161,2.0452 -3.89853,3.8207 -3.92732,3.9444 -0.032,0.1226 1.64216,2.1977 3.71085,4.6097 2.06869,2.4121 3.76204,4.4648 3.76204,4.5619 0,0.096 -0.46599,0 -1.03435,-0.2186 -0.56942,-0.2176 -3.38029,-1.1261 -6.2466,-2.0176 l -5.21119,-1.6208 -2.87591,2.621 c -1.58245,1.4428 -2.87697,2.7693 -2.87697,2.9496 0,0.1801 1.98871,2.7053 4.41996,5.611 2.43018,2.9068 4.37732,5.2826 4.32507,5.2805 -0.0533,0 -3.41015,-1.0738 -7.46437,-2.3822 l -7.37052,-2.3769 -1.09299,0.9245 c -0.60142,0.5087 -2.1508,1.9333 -3.44427,3.166 l -2.35127,2.2414 4.38265,5.3285 c 2.40991,2.9314 4.98405,5.9641 5.71876,6.7403 0.73577,0.7753 1.11645,1.4097 0.8456,1.4097 -0.26978,0 -2.96975,-0.6686 -6.00027,-1.4865 -3.03053,-0.8179 -7.25856,-1.9279 -9.3955,-2.4664 l -3.88359,-0.98 -1.75839,1.6017 c -4.26428,3.8857 -12.104,11.5175 -12.104,11.783 0,0.16 1.57925,2.1753 3.50932,4.4786 8.15108,9.7272 10.79239,13.0798 10.15046,12.8899 -0.37429,-0.1109 -5.75928,-1.4011 -11.96643,-2.8663 -6.20715,-1.4652 -11.58469,-2.7565 -11.9515,-2.8684 -0.48945,-0.1493 -2.55495,1.6624 -7.81305,6.8565 -3.93052,3.8825 -7.1018,7.186 -7.04529,7.3418 0.0533,0.1556 2.4707,3.0155 5.36793,6.3553 2.89618,3.3397 5.32209,6.2274 5.39141,6.4161 0.0746,0.2059 -13.29936,0.3434 -33.38594,0.3434 -18.43164,0 -33.5011,-0.1269 -33.48937,-0.2815 z m 187.81923,-113.9531 c 0.1205,-0.1204 -0.54596,-1.2134 -1.48114,-2.428 l -1.69974,-2.2095 h -38.15993 -38.16099 v 1.5985 c 0,0.8797 0.10876,1.9834 0.23459,2.4537 l 0.22819,0.8541 39.40755,-0.022 c 21.6733,-0.01 39.50564,-0.1237 39.62614,-0.2442 z m 102.42485,-0.2879 c 0.11409,-0.2974 0.23566,-1.3552 0.26978,-2.3512 l 0.064,-1.8106 -28.02546,-0.1173 c -15.4139,-0.064 -32.63844,0 -38.2783,0.1375 l -10.25282,0.2538 -1.54086,1.9322 -1.54086,1.9322 3.14143,0.2122 c 1.72854,0.1163 19.5257,0.2431 39.54937,0.2815 31.34604,0.064 36.43566,0 36.6148,-0.4703 z m -112.56145,-12.8504 c 0.46812,-0.1791 0.24419,-0.6441 -1.10579,-2.3022 l -1.69334,-2.0782 -33.93083,0.064 c -18.66303,0.032 -33.9703,0.1067 -34.01722,0.1514 -0.0426,0.043 0.0107,1.0536 0.13756,2.2361 l 0.2218,2.1508 h 34.9012 c 19.1962,0 35.16459,-0.096 35.48662,-0.225 z m 113.97434,-0.6216 c 0.12476,-0.466 0.22926,-1.4812 0.2314,-2.2575 v -1.4107 l -33.95003,0.01 -33.95003,0.01 -1.31693,1.7541 c -0.72404,0.965 -1.45235,1.9737 -1.61763,2.2425 -0.24526,0.3988 6.17728,0.4883 35.0345,0.4883 h 35.33626 z m -122.02198,-12.553 c 0,-0.1279 -0.46492,-0.7805 -1.03435,-1.4502 -0.56836,-0.6707 -1.32865,-1.5813 -1.68907,-2.025 l -0.65474,-0.8061 h -26.84289 c -14.76344,0 -28.39228,0.1098 -30.2861,0.2442 l -3.4432,0.2442 v 1.7626 c 0,0.9683 0.11303,1.8747 0.25059,2.0122 0.3167,0.3167 63.69976,0.3348 63.69976,0.022 z m 123.44661,-1.8682 c 0.0746,-1.1558 0.064,-2.171 -0.032,-2.2574 -0.0853,-0.085 -13.64378,-0.1557 -30.12828,-0.1557 h -29.97153 l -1.75306,2.2575 -1.75199,2.2563 h 31.75125 31.75231 z m -70.49553,-19.4564 0.096,-19.0703 h -22.3856 -22.38668 v 3.745 3.745 l -1.41076,0.2559 c -3.5381,0.6419 -5.98535,3.0092 -7.10927,6.8757 -1.14951,3.954 0.28792,9.4296 3.022,11.5154 0.66859,0.5097 2.13587,1.1623 3.26299,1.4502 l 2.04737,0.5235 0.10663,5.1472 0.10663,5.1473 22.27792,-0.1323 22.27897,-0.1333 z m -42.4178,0.022 v -17.0219 l 10.81478,0.075 10.81586,0.075 0.11729,1.6187 c 0.064,0.8904 0.2346,1.7349 0.37642,1.8768 0.14182,0.1428 2.31182,0.6025 4.82091,1.0226 3.35256,0.5598 5.49803,1.1729 8.08816,2.3065 5.81687,2.5485 5.24958,1.4203 5.13122,10.2112 l -0.10663,7.5646 -3.00921,1.2892 c -4.97659,2.1316 -5.83393,2.396 -10.53328,3.247 l -4.5138,0.8168 -0.11303,1.7296 -0.11197,1.7306 -2.52082,0.2389 c -1.3873,0.1312 -6.28818,0.2389 -10.89156,0.241 h -8.36968 z m 26.28626,-57.1791 c 11.76063,-11.5207 59.62635,-56.872 70.76851,-67.0512 7.08901,-6.477 16.07929,-13.3986 21.81831,-16.8002 9.8135,-5.8147 16.67325,-7.9176 27.49976,-8.4304 l 5.49484,-0.2602 0.23779,-4.5608 c 0.13009,-2.508 0.35083,-8.5807 0.49052,-13.4945 0.25165,-8.9103 0.24952,-8.9348 -0.53957,-8.9348 -0.89572,0 -9.63861,1.2711 -13.05836,1.8981 -4.37198,0.8009 -12.8419,2.9922 -17.45593,4.5138 -29.34879,9.6845 -53.68366,30.2648 -78.55063,66.4328 -5.98108,8.6981 -17.18295,26.3257 -22.7535,35.8044 l -0.95544,1.6251 -3.87293,-6.3277 c -14.02766,-22.9198 -20.91726,-33.2078 -30.3938,-45.3896 -15.01935,-19.305 -29.06514,-32.2002 -45.70426,-41.9594 -14.04899,-8.2385 -30.33728,-13.5509 -49.17092,-16.0345 -2.34488,-0.3092 -4.34319,-0.563 -4.44023,-0.563 -0.21434,0 0.23886,19.2293 0.55983,23.7186 l 0.23033,3.216 6.62835,0.4373 c 6.8672,0.4532 10.50341,1.1921 15.946,3.2405 7.4281,2.7959 18.83897,10.1761 27.92522,18.0585 8.86126,7.6882 27.51469,25.254 57.74321,54.3767 23.51698,22.6554 24.22397,23.3325 24.40418,23.3422 0.0746,0 3.29498,-3.0818 7.14872,-6.8577 z m -86.85099,-17.6713 c 2.5816,-0.7731 4.7324,-2.121 6.69765,-4.1993 2.65625,-2.8087 3.85481,-5.4927 4.1086,-9.2035 0.45,-6.5558 -2.79061,-11.9984 -8.82287,-14.821 -6.00241,-2.8098 -12.46441,-1.2914 -17.37596,4.0819 -4.47648,4.8977 -4.95526,12.5476 -1.14525,18.2995 3.42082,5.1631 10.47464,7.6552 16.53783,5.8424 z m 169.92503,-0.8126 c 2.8983,-1.3318 6.1293,-4.6055 7.5486,-7.6488 0.88719,-1.9056 1.01408,-2.6445 1.01835,-5.9555 0,-3.6116 -0.0533,-3.906 -1.4001,-6.6241 -1.68801,-3.4176 -3.87934,-5.5673 -7.31081,-7.1732 -6.02587,-2.8194 -12.47934,-1.3084 -17.39728,4.0723 -2.61039,2.8568 -3.5541,5.4436 -3.5541,9.7431 0,4.4467 0.93518,6.9056 3.80682,10.0066 3.39308,3.666 6.28712,4.8721 11.37782,4.743 3.01559,-0.075 3.93797,-0.258 5.9107,-1.1634 z m -84.79724,-76.7655 c 8.58615,-2.652 14.18335,-10.207 14.18335,-19.143 0,-11.2604 -9.78471,-20.4874 -20.87781,-19.6888 -17.1563,1.2359 -24.7934,22.4176 -12.31512,34.1558 4.20883,3.9583 8.97109,5.7497 14.38382,5.4106 1.55152,-0.096 3.63407,-0.4275 4.62576,-0.7346 z m -138.39452,-40.9282 c 0.29218,-2.8204 0.93198,-14.0756 1.2135,-21.3481 l 0.23992,-6.2071 -1.10686,-1.881 c -1.22522,-2.0783 -2.51869,-2.7629 -5.29436,-2.8002 -1.77119,-0.022 -1.96846,0.2794 -0.8456,1.2956 0.7283,0.66 0.75176,1.1591 0.75176,15.962 0,13.2226 -0.0746,15.3947 -0.58542,16.1176 l -0.58541,0.8361 h 3.00387 3.00387 z m 272.57915,1.768 c 0,-0.113 -0.26126,-0.7113 -0.58009,-1.3297 -0.50012,-0.9672 -0.56516,-3.1702 -0.47026,-15.93 0.096,-13.4806 0.16955,-14.8722 0.76883,-15.5333 1.04502,-1.1549 0.80295,-1.3329 -1.58457,-1.1603 -2.62639,0.1899 -3.42615,0.7699 -4.80492,3.488 l -0.94584,1.8672 0.62167,11.863 c 0.3423,6.5249 0.72405,13.0061 0.84881,14.403 l 0.225,2.539 h 2.96121 c 1.6283,0 2.96016,-0.096 2.96016,-0.2069 z m -258.12708,-2.2127 c 16.17312,-4.0659 47.2867,-8.3035 73.42262,-10.0011 16.0345,-1.0408 22.6138,-1.2295 43.26128,-1.2359 26.48354,0 41.14673,0.6216 64.51444,2.7703 17.7801,1.6358 46.84737,6.1165 54.89715,8.4646 2.30222,0.6718 2.5624,0.6633 1.26468,-0.043 -5.19626,-2.8204 -23.43062,-7.6317 -39.09938,-10.3167 -25.63686,-4.3944 -51.97539,-6.4066 -83.77035,-6.4034 -46.47202,0 -82.45769,4.0777 -106.52278,12.0517 -3.60421,1.1954 -9.79216,3.937 -11.35755,5.0342 -1.11005,0.7763 -0.90532,0.7571 3.38989,-0.322 z m 226.46754,-13.4496 c 3.10197,-1.5399 3.06891,-1.3447 3.06998,-18.0222 0,-14.4393 0,-14.5267 -0.86906,-16.1752 -1.1783,-2.2468 -4.71428,-4.8636 -8.60001,-6.364 -1.7232,-0.6643 -5.75715,-1.8735 -8.96363,-2.6871 -6.21887,-1.5761 -18.82191,-4.1928 -19.05864,-3.9562 -0.0746,0.075 1.34359,1.0451 3.15743,2.1498 3.07638,1.8735 12.86322,8.3537 19.24525,12.7427 1.52806,1.0514 2.92496,1.9109 3.10304,1.9109 0.17807,0 0.32416,-1.4385 0.32416,-3.1969 0,-1.7584 0.0853,-3.1979 0.19301,-3.1979 0.10663,0 0.78162,0.3806 1.50033,0.8466 1.17404,0.7603 1.30626,1.0184 1.30307,2.539 0,1.4864 -0.56409,9.4648 -1.34572,19.113 -0.4276,5.2869 -1.04395,3.1319 -1.46302,-5.1184 l -0.37534,-7.411 -4.70255,-2.7832 c -14.7837,-8.7503 -20.9002,-12.4729 -25.82241,-15.7167 -3.72258,-2.4547 -6.01734,-3.7194 -7.121,-3.9252 -6.77764,-1.2668 -28.76337,-2.9239 -40.6221,-3.0626 l -7.92288,-0.096 -1.37664,1.045 c -0.92451,0.7017 -1.5078,1.5355 -1.77865,2.539 -0.26552,0.9873 -0.36575,7.2137 -0.29324,18.3292 0.10663,16.1487 0.13969,16.8865 0.87439,18.1362 1.31693,2.2426 2.78634,2.8152 7.51022,2.9229 26.90687,0.6174 54.84809,3.6703 75.04771,8.2012 3.20647,0.7198 6.59209,1.559 7.52301,1.8671 2.21157,0.7305 5.23144,0.4735 7.46329,-0.6333 z m -206.15383,-0.096 c 19.60141,-4.9244 47.5085,-8.3249 75.58941,-9.2121 10.09821,-0.3188 10.83399,-0.5023 12.12426,-3.0316 0.72617,-1.4225 0.75603,-2.1956 0.75603,-19.1653 v -17.6819 l -1.14738,-1.3063 c -1.81064,-2.0623 -2.87591,-2.2447 -11.42899,-1.9493 -13.37507,0.4628 -35.92596,2.2052 -39.71252,3.0689 -0.51717,0.1184 -3.906,2.1327 -7.53047,4.4754 -3.62555,2.3438 -11.56442,7.2416 -17.64254,10.8831 -6.07813,3.6415 -11.25519,6.7893 -11.50258,6.9962 -0.30924,0.2559 -0.51931,2.7095 -0.6654,7.7544 -0.13115,4.5106 -0.37214,7.5401 -0.62167,7.7885 -0.22712,0.2282 -0.42014,0.2496 -0.4372,0.053 -0.58755,-7.0431 -1.67201,-23.0307 -1.58031,-23.3037 0.17594,-0.5257 2.53362,-2.139 2.61573,-1.7904 0.032,0.1568 0.17701,1.5782 0.31136,3.1585 l 0.2442,2.8727 10.27629,-6.8768 c 5.65265,-3.7823 11.48018,-7.5795 12.95066,-8.4379 2.75008,-1.607 3.15529,-1.945 2.01431,-1.6837 -0.36149,0.085 -3.19688,0.6643 -6.30099,1.2903 -7.28734,1.4704 -18.0872,4.2621 -20.93006,5.4106 -3.41227,1.3787 -6.28818,3.2523 -7.79598,5.081 l -1.36811,1.6571 -0.26765,13.9541 c -0.14823,7.6744 -0.17062,14.6312 -0.0533,15.4587 0.32417,2.2521 1.22735,3.4901 3.30138,4.5234 2.36619,1.1794 4.15551,1.1826 8.79941,0.01 z m -0.61421,-59.1562 c 15.23262,-11.607 41.12754,-18.6395 76.67068,-20.8233 8.51151,-0.5225 35.89397,-0.5108 43.9608,0.022 22.12649,1.4533 42.81023,5.45 61.08511,11.8032 7.56459,2.6296 14.61841,5.4437 17.17549,6.8533 3.26618,1.8001 1.85969,0.5641 -2.86312,-2.5165 -16.25098,-10.5983 -35.4461,-17.2288 -60.29815,-20.8298 -28.73138,-4.163 -61.68332,-3.4997 -86.14508,1.7328 -22.50504,4.8145 -44.16234,15.0791 -51.57552,24.4457 -1.42036,1.7936 -1.13351,1.6955 1.98979,-0.6846 z m 105.18453,-34.5663 c 0.1077,-1.4683 0.0426,-1.5633 -1.42356,-2.2265 -1.48327,-0.6686 -3.30458,-2.395 -4.55753,-4.3187 l -0.60141,-0.9245 -0.47665,0.9277 c -0.79442,1.542 -3.08812,3.712 -4.37305,4.1363 -1.09086,0.3604 -1.22202,0.5652 -1.34465,2.1018 -0.0746,0.9363 -0.064,1.7787 0.032,1.8725 0.096,0.096 2.97295,0.1237 6.40015,0.064 l 6.22954,-0.1066 z" id="path86" /></g></svg>